<?xml version="1.0" encoding="utf-8"?>
<svg viewBox="0 0 374.9 84.4" width="374.9" height="84.4" xmlns="http://www.w3.org/2000/svg">
  <path fill="#E2231A" d="M33,61.5c-3.1,0-4.2-2.4-2.6-6.4L52.6,0c0,0-8.1,0.1-14.5,0.4c-2.1,0.2-6.3,0.2-9.2,4.7 c-0.4,0.6-21.5,39-25.9,47c-1.2,2.3-4.5,8.3-2.3,12.7c2.1,4.2,4.2,8.4,6.6,12.9c1.9,3.5,4.8,7.6,12.7,6.5c10-1.3,19.4-2.6,29.5-3.9 c7.4-1,8.1-3.2,9.7-7c1.7-4.2,4.9-12.4,4.9-12.4S34.5,61.5,33,61.5 M58.8,73.1l-0.1,0.2c-1.4,3.6-2.2,5.6-9.2,6.5 c-10.8,1.4-20.2,2.7-29.5,3.9c-0.8,0.1-1.7,0.2-2.4,0.2c-5.6,0-8.1-3.1-9.9-6.4c-2.4-4.4-4.5-8.6-6.6-12.9 c-2.1-4.2,1.1-10.1,2.3-12.3C7.9,44.3,28.9,6,29.3,5.3c2.5-3.9,6-4.2,8.2-4.4c0.2,0,0.4,0,0.6-0.1c5.2-0.2,11.6-0.4,13.7-0.4 L30,54.9c-1,2.4-1.1,4.3-0.2,5.6c0.6,1,1.8,1.5,3.2,1.5c1.3,0,25.9-0.5,30.5-0.6C62.7,63.4,60.2,69.7,58.8,73.1"/>
  <path fill="#E2231A" d="M17.6,83c-5.4,0-7.5-3.1-9-5.9C6.2,72.7,4.1,68.5,2,64.2c-1.9-3.8,1.2-9.4,2.3-11.5 C8.7,44.6,29.3,7.1,30.1,5.8c2.3-3.5,5.3-3.8,7.5-4c0.2,0,0.4,0,0.6-0.1c4.3-0.2,9.8-0.3,12.6-0.4L29.2,54.5 c-1.4,3.3-0.8,5.3-0.1,6.4c0.6,0.9,1.7,1.9,4,1.9c1.2,0,22.3-0.4,29.1-0.5c-1.1,2.7-3,7.6-4.1,10.5L57.9,73c-1.4,3.6-2,5.1-8.5,5.9 c-10.8,1.4-20.2,2.7-29.5,3.9C19.1,82.9,18.3,83,17.6,83"/>
  <path fill="#E2231A" d="M 146.2 34.5 C 147.5 34.5 149.9 34.7 151.4 34.9 L 146.2 54.8 C 145.1 55 142.7 55.1 140.5 55.1 C 136.8 55.1 135.6 53.6 135.9 50.3 C 135.9 49.6 136.1 48.8 136.5 46.8 C 136.7 45.8 137.6 42.4 137.6 42.4 C 139.1 37.1 141.1 34.5 146.2 34.5 M 163.6 17 L 156.1 17 L 153.1 28.8 C 151.1 28.6 149.2 28.5 147.9 28.5 C 138.6 28.5 133 32.4 130.4 42.6 C 130.4 42.6 129.6 45.8 129.3 47 C 128.8 49 128.8 49.5 128.8 50.1 C 128.2 56.5 131.2 61.3 139 61.3 C 142.8 61.3 147.2 60.8 151 59.9 C 152.3 59.6 152.6 59.3 152.9 58.4 L 163.6 17 Z M 175.7 34.5 C 179.4 34.5 180.5 36.2 180.2 39.2 C 180.2 40.2 180 41.3 179.6 42.5 L 178.5 46.9 C 177.4 51.1 175.2 55.1 170.3 55.1 C 168 55.1 165.7 55 164.7 54.8 L 170.1 34.9 C 171.8 34.7 174.3 34.5 175.7 34.5 M 187 42.5 C 187.3 41.3 187.5 40.2 187.6 39.1 C 188.1 32.8 185.1 28.5 177.3 28.5 C 175.9 28.5 173.9 28.6 171.8 28.8 L 174.8 17 L 167.1 17 C 167.1 17 158.1 51.3 156.3 58.5 C 156 59.5 157.4 59.7 157.5 59.8 C 160.7 60.7 164.8 61.2 168.6 61.2 C 178 61.2 183.4 56.5 185.9 46.9 L 187 42.5 M 222.6 34.8 C 225.9 34.8 227.3 36.6 227 39.9 C 226.9 40.6 226.8 41.5 226.6 42.4 L 225.4 46.9 C 224 52.2 221.4 54.8 217.2 54.8 C 213.9 54.8 212.4 52.7 212.7 49.4 C 212.8 48.9 212.8 48.3 213.3 46.4 C 213.5 45.3 214.4 42.3 214.4 42.3 C 215.8 36.9 218.9 34.8 222.6 34.8 M 234.5 39.5 C 235 33.6 231.9 28.5 224.2 28.5 C 215.1 28.5 209.3 33.2 206.8 42.5 C 206.8 42.5 206.1 45 205.7 46.4 C 205.4 47.6 205.1 48.9 205 49.7 C 204.5 55.9 207.6 61.2 215.2 61.2 C 224.3 61.2 230 56.5 232.6 46.9 L 233.8 42.5 C 234.2 41.3 234.4 40.5 234.5 39.5 M 265.3 30 C 265.8 29.5 265.9 28.8 264.9 28.8 L 258.2 28.8 C 257.7 28.8 257.3 29 256.8 29.5 L 244.3 41.6 L 251 17.1 L 243.3 17.1 C 243.3 17.1 235.5 47.1 232.2 59.6 C 232 60.1 232.4 60.8 233 60.8 L 238.2 60.8 C 238.8 60.8 239.5 60.3 239.6 59.6 L 243.1 46 L 249.1 59.6 C 249.3 60.1 249.8 60.7 250.5 60.7 L 256.9 60.7 C 257.4 60.7 258.1 60.2 257.7 59.4 C 256.5 56.8 250.4 43.9 250.4 43.9 L 265.3 30 M 277.1 34.8 C 280.2 34.8 281.8 36.6 281.5 39.8 C 281.4 40.6 281.3 41.2 281.1 41.9 L 268.9 41.9 C 270 37.9 272.6 34.8 277.1 34.8 M 288 43.9 C 288.4 42.1 288.6 41.6 288.8 40 C 289.3 33.4 286.3 28.5 278.8 28.5 C 269.9 28.5 264 32.4 261.2 42.9 C 261.2 42.9 260.8 44.4 260.4 46.1 C 260.1 47.7 259.8 49.3 259.8 49.7 C 259.1 58.4 264.9 61.2 269.9 61.2 C 275.2 61.2 277.7 60.9 281.5 60.3 C 282.6 60.2 282.8 59.8 283 58.9 L 284.1 54.2 C 281.5 54.6 276.6 55 272.5 55 C 268 55 266.7 52.7 266.9 49.6 C 266.9 48.9 267.2 48.1 267.4 47.3 L 286 47.3 C 286.8 47.3 287.3 46.8 287.5 45.9 C 287.5 45.9 287.7 45.2 288 43.9 M 314.2 29.6 C 311.2 28.8 307.8 28.5 304.4 28.5 C 299.1 28.5 292.2 30.2 291.5 37.7 C 291.3 40.4 292.6 42.9 294.6 44.4 L 301.3 49.1 C 302.6 50.1 303 51 302.9 51.9 C 302.7 54.7 300.6 55.2 297.8 55.2 C 296.4 55.2 291.3 55 288.7 54.6 C 287.7 54.5 287.3 55.3 287.2 55.5 L 286.3 59 C 286.1 59.6 286.5 60.1 287 60.2 C 290.4 61.1 295.2 61.3 297.1 61.3 C 303.9 61.3 309.9 58.4 310.6 51.1 C 310.9 48.6 310.2 46.4 307 44.1 L 300.8 39.5 C 299.7 38.8 299.3 38 299.3 37.2 C 299.5 34.8 302.1 34.6 303.8 34.6 C 306.1 34.6 310 34.8 312.6 35.3 C 313.6 35.4 313.9 34.6 314 34.2 L 314.8 31 C 315 30.9 315.3 29.8 314.2 29.6 M 209.6 29.6 C 209.8 28.7 209 28.5 208.8 28.5 C 206.5 28.5 203.5 28.7 200.1 31.2 L 200.4 30.1 C 200.6 29.5 200.2 29 199.6 29 L 194.6 29 C 193.8 29 193.2 29.5 193.1 30.1 C 193.1 30.1 186.6 54.8 185.4 59.5 C 185.2 60.3 185.4 60.9 186.2 60.9 L 191.2 60.9 C 191.9 60.9 192.5 60.4 192.6 59.7 L 198.8 36.8 C 202.8 34.9 205.3 34.8 207.1 34.8 C 207.7 34.8 208.3 34.3 208.5 33.7 C 208.5 33.6 209.2 31.1 209.6 29.6 M 116.9 34.6 C 111.9 34.6 109.8 38 108.6 42.6 L 107.1 48.4 C 106.9 49.3 106.8 50 106.7 50.7 C 106.4 54.1 108 55.2 110.2 55.2 C 112.3 55.2 114.8 54.3 117.6 52.6 L 122.3 35 C 121.3 34.7 119 34.6 116.9 34.6 M 130.5 31.5 L 123.2 59.6 C 123 60.2 122.4 60.7 121.8 60.7 L 117.3 60.7 C 116.4 60.7 116.2 60.2 116.3 59.7 C 116.5 58.8 116.6 58 116.6 58 C 113.3 60.4 110.4 61.1 107.7 61.1 C 102.5 61.1 98.8 57.7 99.4 50.7 C 99.4 50.2 99.7 48.8 100.1 47.3 C 100.5 45.5 100.9 43.6 101.3 42.5 C 103.6 33.7 109.4 28.4 118.7 28.4 C 122.3 28.4 126.5 29 129.8 29.9 C 130.6 30.2 130.8 30.6 130.5 31.5"/>
  <path fill="#E2231A" d="M326.2,40c0.2-0.6,0.4-0.8,1.3-1c2.6-0.6,5.6-1,8.1-1c5.4,0,7.5,3.3,7.1,7.6c0,0.4,0,0.8-0.4,2.1 c-0.2,0.8-0.7,3-0.7,3c-1.8,7.3-5.7,10-11.9,10c-0.9,0-2.2-0.1-3.6-0.2l-2.2,8h-5.4L326.2,40z M330.8,56.6c3.4,0,4.7-1.8,5.7-5.8 c0,0,0.6-2.3,0.8-3c0.3-1.3,0.4-1.9,0.4-2.4c0.2-2.1-0.6-3.1-3.2-3.1c-1.4,0-3,0.1-3.8,0.2l-3.6,13.9 C328.2,56.5,329.9,56.6,330.8,56.6"/>
  <path fill="#E2231A" d="M355.5,30.3h-5.3l-6.6,24.2c-0.2,0.7-0.3,1.3-0.4,1.9c-0.3,3.1,1.5,4.3,5,4.3c0.9,0,4.4-0.1,5.4-0.3 c0.5-0.1,0.8-0.3,0.9-0.7l0.8-3.1h-2.9c-2.1,0-4.1,0-3.7-1.3C349.2,54.1,355.5,30.3,355.5,30.3"/>
  <path fill="#E2231A" d="M374.8,39.3l-1,3.2c0,0-0.1,0-0.7-0.1c-0.9-0.1-2.5-0.3-5-0.3c-1.8,0-4,1.1-5.1,5.2l-1,3.7 c-0.2,0.8-0.3,1.4-0.3,2c-0.2,2.9,1.2,3.4,2.8,3.4c2.6,0,3.7-0.1,5.2-0.3l0.8-0.1l-0.9,3.2c-0.2,0.6-0.3,0.9-1.1,1 c-1,0.2-2.8,0.5-5.2,0.5c-4.5,0-7.2-3.1-6.9-7.8c0.1-0.6,0.2-1.3,0.4-2l1-3.7c2-7.4,6.4-9.6,11.5-9.6c2.4,0,4.1,0.3,5,0.5 c0.6,0.1,0.8,0.3,0.7,0.7L374.8,39.3z"/>
  <path fill="#E2231A" d="M 87.356 34.686 C 88.656 34.686 91.056 34.886 92.556 35.086 L 87.356 54.986 C 86.256 55.186 83.856 55.286 81.656 55.286 C 77.956 55.286 76.756 53.786 77.056 50.486 C 77.056 49.786 77.256 48.986 77.656 46.986 C 77.856 45.986 78.756 42.586 78.756 42.586 C 80.256 37.286 82.256 34.686 87.356 34.686 M 104.756 17.186 L 97.256 17.186 L 94.256 28.986 C 92.256 28.786 90.356 28.686 89.056 28.686 C 79.756 28.686 74.156 32.586 71.556 42.786 C 71.556 42.786 70.756 45.986 70.456 47.186 C 69.956 49.186 69.956 49.686 69.956 50.286 C 69.356 56.686 72.356 61.486 80.156 61.486 C 83.956 61.486 88.356 60.986 92.156 60.086 C 93.456 59.786 93.756 59.486 94.056 58.586 L 104.756 17.186 Z"/>
</svg>