<?xml version="1.0" encoding="utf-8"?>
<!-- Generator: Adobe Illustrator 18.0.0, SVG Export Plug-In . SVG Version: 6.00 Build 0)  -->
<!DOCTYPE svg PUBLIC "-//W3C//DTD SVG 1.1//EN" "http://www.w3.org/Graphics/SVG/1.1/DTD/svg11.dtd">
<svg version="1.1" id="Layer_1" xmlns="http://www.w3.org/2000/svg" xmlns:xlink="http://www.w3.org/1999/xlink" x="0px" y="0px"
	 viewBox="0 0 374.9 84.4" enable-background="new 0 0 374.9 84.4" xml:space="preserve">
<path fill="#E2231A" d="M33,61.5c-3.1,0-4.2-2.4-2.6-6.4L52.6,0c0,0-8.1,0.1-14.5,0.4c-2.1,0.2-6.3,0.2-9.2,4.7
	c-0.4,0.6-21.5,39-25.9,47c-1.2,2.3-4.5,8.3-2.3,12.7c2.1,4.2,4.2,8.4,6.6,12.9c1.9,3.5,4.8,7.6,12.7,6.5c10-1.3,19.4-2.6,29.5-3.9
	c7.4-1,8.1-3.2,9.7-7c1.7-4.2,4.9-12.4,4.9-12.4S34.5,61.5,33,61.5 M58.8,73.1l-0.1,0.2c-1.4,3.6-2.2,5.6-9.2,6.5
	c-10.8,1.4-20.2,2.7-29.5,3.9c-0.8,0.1-1.7,0.2-2.4,0.2c-5.6,0-8.1-3.1-9.9-6.4c-2.4-4.4-4.5-8.6-6.6-12.9
	c-2.1-4.2,1.1-10.1,2.3-12.3C7.9,44.3,28.9,6,29.3,5.3c2.5-3.9,6-4.2,8.2-4.4c0.2,0,0.4,0,0.6-0.1c5.2-0.2,11.6-0.4,13.7-0.4
	L30,54.9c-1,2.4-1.1,4.3-0.2,5.6c0.6,1,1.8,1.5,3.2,1.5c1.3,0,25.9-0.5,30.5-0.6C62.7,63.4,60.2,69.7,58.8,73.1"/>
<path fill="#E2231A" d="M17.6,83c-5.4,0-7.5-3.1-9-5.9C6.2,72.7,4.1,68.5,2,64.2c-1.9-3.8,1.2-9.4,2.3-11.5
	C8.7,44.6,29.3,7.1,30.1,5.8c2.3-3.5,5.3-3.8,7.5-4c0.2,0,0.4,0,0.6-0.1c4.3-0.2,9.8-0.3,12.6-0.4L29.2,54.5
	c-1.4,3.3-0.8,5.3-0.1,6.4c0.6,0.9,1.7,1.9,4,1.9c1.2,0,22.3-0.4,29.1-0.5c-1.1,2.7-3,7.6-4.1,10.5L57.9,73c-1.4,3.6-2,5.1-8.5,5.9
	c-10.8,1.4-20.2,2.7-29.5,3.9C19.1,82.9,18.3,83,17.6,83"/>
<path fill="#E2231A" d="M96.9,59.3c-0.2,0.8-0.6,1-1.4,1.2c-1.8,0.4-9.4,0.4-12.4,0.4c-5.2,0-9.5-3.7-7.7-10.9
	c2.5-9.5,8.6-33,8.6-33h8l-8.7,32.5c-0.1,0.7-0.2,1.3-0.3,1.9c-0.2,2.4,0.8,3.2,3.4,3.2H97c0.3,0,1.1,0.3,0.8,1.2
	C97.4,57.3,96.9,59.3,96.9,59.3 M146.2,34.5c1.3,0,3.7,0.2,5.2,0.4l-5.2,19.9c-1.1,0.2-3.5,0.3-5.7,0.3c-3.7,0-4.9-1.5-4.6-4.8
	c0-0.7,0.2-1.5,0.6-3.5c0.2-1,1.1-4.4,1.1-4.4C139.1,37.1,141.1,34.5,146.2,34.5 M163.6,17l-7.5,0l-3,11.8c-2-0.2-3.9-0.3-5.2-0.3
	c-9.3,0-14.9,3.9-17.5,14.1c0,0-0.8,3.2-1.1,4.4c-0.5,2-0.5,2.5-0.5,3.1c-0.6,6.4,2.4,11.2,10.2,11.2c3.8,0,8.2-0.5,12-1.4
	c1.3-0.3,1.6-0.6,1.9-1.5L163.6,17z M175.7,34.5c3.7,0,4.8,1.7,4.5,4.7c0,1-0.2,2.1-0.6,3.3l-1.1,4.4c-1.1,4.2-3.3,8.2-8.2,8.2
	c-2.3,0-4.6-0.1-5.6-0.3l5.4-19.9C171.8,34.7,174.3,34.5,175.7,34.5 M187,42.5c0.3-1.2,0.5-2.3,0.6-3.4c0.5-6.3-2.5-10.6-10.3-10.6
	c-1.4,0-3.4,0.1-5.5,0.3l3-11.8h-7.7c0,0-9,34.3-10.8,41.5c-0.3,1,1.1,1.2,1.2,1.3c3.2,0.9,7.3,1.4,11.1,1.4
	c9.4,0,14.8-4.7,17.3-14.3L187,42.5 M222.6,34.8c3.3,0,4.7,1.8,4.4,5.1c-0.1,0.7-0.2,1.6-0.4,2.5l-1.2,4.5c-1.4,5.3-4,7.9-8.2,7.9
	c-3.3,0-4.8-2.1-4.5-5.4c0.1-0.5,0.1-1.1,0.6-3c0.2-1.1,1.1-4.1,1.1-4.1C215.8,36.9,218.9,34.8,222.6,34.8 M234.5,39.5
	c0.5-5.9-2.6-11-10.3-11c-9.1,0-14.9,4.7-17.4,14c0,0-0.7,2.5-1.1,3.9c-0.3,1.2-0.6,2.5-0.7,3.3c-0.5,6.2,2.6,11.5,10.2,11.5
	c9.1,0,14.8-4.7,17.4-14.3l1.2-4.4C234.2,41.3,234.4,40.5,234.5,39.5 M265.3,30c0.5-0.5,0.6-1.2-0.4-1.2h-6.7
	c-0.5,0-0.9,0.2-1.4,0.7l-12.5,12.1l6.7-24.5h-7.7c0,0-7.8,30-11.1,42.5c-0.2,0.5,0.2,1.2,0.8,1.2h5.2c0.6,0,1.3-0.5,1.4-1.2
	l3.5-13.6l6,13.6c0.2,0.5,0.7,1.1,1.4,1.1h6.4c0.5,0,1.2-0.5,0.8-1.3c-1.2-2.6-7.3-15.5-7.3-15.5L265.3,30 M277.1,34.8
	c3.1,0,4.7,1.8,4.4,5c-0.1,0.8-0.2,1.4-0.4,2.1h-12.2C270,37.9,272.6,34.8,277.1,34.8 M288,43.9c0.4-1.8,0.6-2.3,0.8-3.9
	c0.5-6.6-2.5-11.5-10-11.5c-8.9,0-14.8,3.9-17.6,14.4c0,0-0.4,1.5-0.8,3.2c-0.3,1.6-0.6,3.2-0.6,3.6c-0.7,8.7,5.1,11.5,10.1,11.5
	c5.3,0,7.8-0.3,11.6-0.9c1.1-0.1,1.3-0.5,1.5-1.4l1.1-4.7c-2.6,0.4-7.5,0.8-11.6,0.8c-4.5,0-5.8-2.3-5.6-5.4c0-0.7,0.3-1.5,0.5-2.3
	H286c0.8,0,1.3-0.5,1.5-1.4C287.5,45.9,287.7,45.2,288,43.9 M314.2,29.6c-3-0.8-6.4-1.1-9.8-1.1c-5.3,0-12.2,1.7-12.9,9.2
	c-0.2,2.7,1.1,5.2,3.1,6.7l6.7,4.7c1.3,1,1.7,1.9,1.6,2.8c-0.2,2.8-2.3,3.3-5.1,3.3c-1.4,0-6.5-0.2-9.1-0.6c-1-0.1-1.4,0.7-1.5,0.9
	l-0.9,3.5c-0.2,0.6,0.2,1.1,0.7,1.2c3.4,0.9,8.2,1.1,10.1,1.1c6.8,0,12.8-2.9,13.5-10.2c0.3-2.5-0.4-4.7-3.6-7l-6.2-4.6
	c-1.1-0.7-1.5-1.5-1.5-2.3c0.2-2.4,2.8-2.6,4.5-2.6c2.3,0,6.2,0.2,8.8,0.7c1,0.1,1.3-0.7,1.4-1.1l0.8-3.2
	C315,30.9,315.3,29.8,314.2,29.6 M209.6,29.6c0.2-0.9-0.6-1.1-0.8-1.1c-2.3,0-5.3,0.2-8.7,2.7l0.3-1.1c0.2-0.6-0.2-1.1-0.8-1.1h-5
	c-0.8,0-1.4,0.5-1.5,1.1c0,0-6.5,24.7-7.7,29.4c-0.2,0.8,0,1.4,0.8,1.4h5c0.7,0,1.3-0.5,1.4-1.2l6.2-22.9c4-1.9,6.5-2,8.3-2
	c0.6,0,1.2-0.5,1.4-1.1C208.5,33.6,209.2,31.1,209.6,29.6 M116.9,34.6c-5,0-7.1,3.4-8.3,8l-1.5,5.8c-0.2,0.9-0.3,1.6-0.4,2.3
	c-0.3,3.4,1.3,4.5,3.5,4.5c2.1,0,4.6-0.9,7.4-2.6l4.7-17.6C121.3,34.7,119,34.6,116.9,34.6 M130.5,31.5l-7.3,28.1
	c-0.2,0.6-0.8,1.1-1.4,1.1h-4.5c-0.9,0-1.1-0.5-1-1c0.2-0.9,0.3-1.7,0.3-1.7c-3.3,2.4-6.2,3.1-8.9,3.1c-5.2,0-8.9-3.4-8.3-10.4
	c0-0.5,0.3-1.9,0.7-3.4c0.4-1.8,0.8-3.7,1.2-4.8c2.3-8.8,8.1-14.1,17.4-14.1c3.6,0,7.8,0.6,11.1,1.5
	C130.6,30.2,130.8,30.6,130.5,31.5"/>
<path fill="#E2231A" d="M326.2,40c0.2-0.6,0.4-0.8,1.3-1c2.6-0.6,5.6-1,8.1-1c5.4,0,7.5,3.3,7.1,7.6c0,0.4,0,0.8-0.4,2.1
	c-0.2,0.8-0.7,3-0.7,3c-1.8,7.3-5.7,10-11.9,10c-0.9,0-2.2-0.1-3.6-0.2l-2.2,8h-5.4L326.2,40z M330.8,56.6c3.4,0,4.7-1.8,5.7-5.8
	c0,0,0.6-2.3,0.8-3c0.3-1.3,0.4-1.9,0.4-2.4c0.2-2.1-0.6-3.1-3.2-3.1c-1.4,0-3,0.1-3.8,0.2l-3.6,13.9
	C328.2,56.5,329.9,56.6,330.8,56.6"/>
<path fill="#E2231A" d="M355.5,30.3h-5.3l-6.6,24.2c-0.2,0.7-0.3,1.3-0.4,1.9c-0.3,3.1,1.5,4.3,5,4.3c0.9,0,4.4-0.1,5.4-0.3
	c0.5-0.1,0.8-0.3,0.9-0.7l0.8-3.1h-2.9c-2.1,0-4.1,0-3.7-1.3C349.2,54.1,355.5,30.3,355.5,30.3"/>
<path fill="#E2231A" d="M374.8,39.3l-1,3.2c0,0-0.1,0-0.7-0.1c-0.9-0.1-2.5-0.3-5-0.3c-1.8,0-4,1.1-5.1,5.2l-1,3.7
	c-0.2,0.8-0.3,1.4-0.3,2c-0.2,2.9,1.2,3.4,2.8,3.4c2.6,0,3.7-0.1,5.2-0.3l0.8-0.1l-0.9,3.2c-0.2,0.6-0.3,0.9-1.1,1
	c-1,0.2-2.8,0.5-5.2,0.5c-4.5,0-7.2-3.1-6.9-7.8c0.1-0.6,0.2-1.3,0.4-2l1-3.7c2-7.4,6.4-9.6,11.5-9.6c2.4,0,4.1,0.3,5,0.5
	c0.6,0.1,0.8,0.3,0.7,0.7L374.8,39.3z"/>
</svg>
